<svg xmlns="http://www.w3.org/2000/svg" viewBox="0 0 5.33 5.33"><g id="Layer_2" data-name="Layer 2"><g id="MOBILE"><path d="M2.88,5.45A2.58,2.58,0,1,1,5.45,2.88,2.58,2.58,0,0,1,2.88,5.45ZM2.7.92a.39.39,0,0,0-.38.39V3.22a.39.39,0,0,0,.19.34l1.27.72.14,0a.39.39,0,0,0,.34-.21.38.38,0,0,0-.14-.51L3.09,3V1.31A.39.39,0,0,0,2.7.92Z" transform="translate(-0.21 -0.21)" /><path d="M2.88,5.45A2.58,2.58,0,1,1,5.45,2.88,2.58,2.58,0,0,1,2.88,5.45ZM2.7.92a.39.39,0,0,0-.38.39V3.22a.39.39,0,0,0,.19.34l1.27.72.14,0a.39.39,0,0,0,.34-.21.38.38,0,0,0-.14-.51L3.09,3V1.31A.39.39,0,0,0,2.7.92Z" transform="translate(-0.21 -0.21)" style=";stroke-miterlimit:10;stroke-width:0.1762631433913px"/></g></g></svg>