<svg xmlns="http://www.w3.org/2000/svg" viewBox="0 0 8.64 7.86"><g id="Layer_2" data-name="Layer 2"><g id="DESTOP"><path d="M5.66,1.92H3.36a2.58,2.58,0,0,0,0,5.15H5.74A.27.27,0,0,1,6,7.33v.26a.27.27,0,0,1-.27.27H3.36a3.37,3.37,0,0,1,0-6.73h2.3V.26A.26.26,0,0,1,5.81,0a.26.26,0,0,1,.27,0L8.51,1.48a.26.26,0,0,1,.13.23.26.26,0,0,1-.13.23L6,3.33a.26.26,0,0,1-.27,0,.28.28,0,0,1-.13-.23Z"  fill-rule="evenodd"/><text transform="translate(2.05 5.54)" font-size="2.71" font-family="ArialRoundedMTBold, Arial Rounded MT Bold">5</text></g></g></svg>