<svg xmlns="http://www.w3.org/2000/svg" viewBox="0 0 8.64 7.86"><g id="Layer_2" data-name="Layer 2"><g id="DESTOP"><path d="M3,1.92H5.28a2.58,2.58,0,0,1,0,5.15H2.9a.26.26,0,0,0-.26.26v.26a.27.27,0,0,0,.26.27H5.28a3.37,3.37,0,0,0,0-6.73H3V.26A.24.24,0,0,0,2.83,0a.24.24,0,0,0-.26,0L.13,1.48A.28.28,0,0,0,0,1.71a.25.25,0,0,0,.14.23L2.6,3.33a.26.26,0,0,0,.27,0A.28.28,0,0,0,3,3.1Z"  fill-rule="evenodd"/><text transform="translate(3.32 5.54)" font-size="2.71"  font-family="ArialRoundedMTBold, Arial Rounded MT Bold">5</text></g></g></svg>