<svg xmlns="http://www.w3.org/2000/svg" viewBox="0 0 12.55 11.21"><g id="Layer_2" data-name="Layer 2"><g id="DESTOP"><path d="M0,4.11v6.46c0,.57.24.64.79.64H8l.6-.11.08-7c0-.53-.09-.63-.68-.63H.69c-.62,0-.69.06-.69.63ZM2.39,6.29a.55.55,0,0,1,.85-.55L6,7c.39.18.36.41,0,.65A19.07,19.07,0,0,1,3,9c-.31.12-.49.06-.5-.16l-.1-2.56Zm1,1.61V6.79l1.26.59Z" fill="#050000" fill-rule="evenodd"/><path d="M3.88.84,11.47,1l.12,6.75c1,.08.94-.28.94-1.12,0-1,.1-6.15-.1-6.42L4.9,0C4,0,3.71-.18,3.88.84Z" fill="#050000" fill-rule="evenodd"/><path d="M1.94,2.58c.88.09,5.23,0,6.7,0,.45,0,.61-.06.85.16l.18,6.7c.68.09.93,0,.93-.66V2.44c0-.52-.16-.71-.75-.71H2.66C1.93,1.73,1.91,2,1.94,2.58Z" fill="#050000" fill-rule="evenodd"/></g></g></svg>