<svg width="0" height="0" class="hidden">
  <symbol xmlns="http://www.w3.org/2000/svg" viewBox="0 0 5.79 5.75" id="music">
    <g id="Layer_2">
      <g id="MOBILE">
        <path d="M5.79.37A.41.41,0,0,0,5.34,0L2,.33a.42.42,0,0,0-.38.41V4.28A1.14,1.14,0,0,0,1,4.09a.94.94,0,0,0-1,.83.94.94,0,0,0,1,.83,1,1,0,0,0,1-.83V1.16L5.38.83V3.45a1.16,1.16,0,0,0-.62-.18,1,1,0,0,0-1,.82,1,1,0,0,0,1,.83.94.94,0,0,0,1-.83V.37Z"></path>
      </g>
    </g>
  </symbol>
  <symbol xmlns="http://www.w3.org/2000/svg" viewBox="0 0 7.73 10.85" id="pause">
    <g id="Layer_2">
      <g id="MOBILE">
        <path d="M1.73,10.85H1a1,1,0,0,1-1-1V1A1,1,0,0,1,1,0h.72a1,1,0,0,1,1,1V9.84A1,1,0,0,1,1.73,10.85Zm6-1V1a1,1,0,0,0-1-1H6A1,1,0,0,0,5,1V9.84a1,1,0,0,0,1,1h.73A1,1,0,0,0,7.73,9.84Z"></path>
      </g>
    </g>
  </symbol>
  <symbol xmlns="http://www.w3.org/2000/svg" viewBox="0 0 5.68 6.35" id="play">
    <g id="Layer_2">
      <g id="DESTOP">
        <path d="M.72.06l2.35,1.3L5.43,2.65a.51.51,0,0,1,.25.42.48.48,0,0,1-.23.42L3.14,4.88.84,6.28a.48.48,0,0,1-.48,0,.49.49,0,0,1-.25-.42l0-2.69L0,.49A.48.48,0,0,1,.23.07.5.5,0,0,1,.72.06Z" fill-rule="evenodd"></path>
      </g>
    </g>
  </symbol>
  <symbol xmlns="http://www.w3.org/2000/svg" viewBox="0 0 8.64 7.86" id="playback">
    <g id="Layer_2">
      <g id="DESTOP">
        <path d="M3,1.92H5.28a2.58,2.58,0,0,1,0,5.15H2.9a.26.26,0,0,0-.26.26v.26a.27.27,0,0,0,.26.27H5.28a3.37,3.37,0,0,0,0-6.73H3V.26A.24.24,0,0,0,2.83,0a.24.24,0,0,0-.26,0L.13,1.48A.28.28,0,0,0,0,1.71a.25.25,0,0,0,.14.23L2.6,3.33a.26.26,0,0,0,.27,0A.28.28,0,0,0,3,3.1Z" fill-rule="evenodd"></path><text transform="translate(3.32 5.54)" font-size="2.71" font-family="ArialRoundedMTBold, Arial Rounded MT Bold">5</text>
      </g>
    </g>
  </symbol>
  <symbol xmlns="http://www.w3.org/2000/svg" viewBox="0 0 8.64 7.86" id="playback--forward">
    <g id="Layer_2">
      <g id="DESTOP">
        <path d="M5.66,1.92H3.36a2.58,2.58,0,0,0,0,5.15H5.74A.27.27,0,0,1,6,7.33v.26a.27.27,0,0,1-.27.27H3.36a3.37,3.37,0,0,1,0-6.73h2.3V.26A.26.26,0,0,1,5.81,0a.26.26,0,0,1,.27,0L8.51,1.48a.26.26,0,0,1,.13.23.26.26,0,0,1-.13.23L6,3.33a.26.26,0,0,1-.27,0,.28.28,0,0,1-.13-.23Z" fill-rule="evenodd"></path><text transform="translate(2.05 5.54)" font-size="2.71" font-family="ArialRoundedMTBold, Arial Rounded MT Bold">5</text>
      </g>
    </g>
  </symbol>
  <symbol xmlns="http://www.w3.org/2000/svg" viewBox="0 0 12.55 11.21" id="playlist">
    <g id="Layer_2">
      <g id="DESTOP">
        <path d="M0,4.11v6.46c0,.57.24.64.79.64H8l.6-.11.08-7c0-.53-.09-.63-.68-.63H.69c-.62,0-.69.06-.69.63ZM2.39,6.29a.55.55,0,0,1,.85-.55L6,7c.39.18.36.41,0,.65A19.07,19.07,0,0,1,3,9c-.31.12-.49.06-.5-.16l-.1-2.56Zm1,1.61V6.79l1.26.59Z" fill-rule="evenodd"></path>
        <path d="M3.88.84,11.47,1l.12,6.75c1,.08.94-.28.94-1.12,0-1,.1-6.15-.1-6.42L4.9,0C4,0,3.71-.18,3.88.84Z" fill-rule="evenodd"></path>
        <path d="M1.94,2.58c.88.09,5.23,0,6.7,0,.45,0,.61-.06.85.16l.18,6.7c.68.09.93,0,.93-.66V2.44c0-.52-.16-.71-.75-.71H2.66C1.93,1.73,1.91,2,1.94,2.58Z" fill-rule="evenodd"></path>
      </g>
    </g>
  </symbol>
  <symbol xmlns="http://www.w3.org/2000/svg" viewBox="0 0 5.33 5.33" id="clock">
    <g id="Layer_2">
      <g id="MOBILE">
        <path d="M2.88,5.45A2.58,2.58,0,1,1,5.45,2.88,2.58,2.58,0,0,1,2.88,5.45ZM2.7.92a.39.39,0,0,0-.38.39V3.22a.39.39,0,0,0,.19.34l1.27.72.14,0a.39.39,0,0,0,.34-.21.38.38,0,0,0-.14-.51L3.09,3V1.31A.39.39,0,0,0,2.7.92Z" transform="translate(-0.21 -0.21)"></path>
        <path d="M2.88,5.45A2.58,2.58,0,1,1,5.45,2.88,2.58,2.58,0,0,1,2.88,5.45ZM2.7.92a.39.39,0,0,0-.38.39V3.22a.39.39,0,0,0,.19.34l1.27.72.14,0a.39.39,0,0,0,.34-.21.38.38,0,0,0-.14-.51L3.09,3V1.31A.39.39,0,0,0,2.7.92Z" transform="translate(-0.21 -0.21)"></path>
      </g>
    </g>
  </symbol>
</svg>